<svg width="15" height="22" viewBox="0 0 15 22" fill="none" xmlns="http://www.w3.org/2000/svg">
<path fill-rule="evenodd" clip-rule="evenodd" d="M10.5858 1.51571C11.2371 2.05186 12.6 3.17961 12.6 5.32541C12.6 7.41354 11.4087 8.40114 10.2174 9.33118C9.84719 9.69853 9.42201 10.0931 9.42201 10.7142C9.42201 11.3352 9.84713 11.6746 10.1594 11.9275L11.1807 12.7174C12.4302 13.7611 13.5651 14.7216 13.5651 16.668C13.5651 19.3204 10.9819 22 6.10082 22C1.98573 22 0 20.0535 0 17.9653C0 16.9497 0.511153 15.5115 2.18532 14.5231C3.94342 13.4513 6.32939 13.3105 7.60497 13.2257C7.20811 12.7174 6.75451 12.1804 6.75451 11.3072C6.75451 10.827 6.89589 10.5453 7.03759 10.2067C6.72532 10.2347 6.41376 10.2627 6.12974 10.2627C3.12154 10.2627 1.41829 8.03373 1.41829 5.83357C1.41829 4.53539 2.01553 3.09557 3.23488 2.05186C4.85316 0.725694 6.78348 0.5 8.31451 0.5H14.16L12.344 1.51571H10.5858ZM8.5598 14.0289C8.33263 14 8.19277 14 7.91222 14C7.65803 14 6.13592 14.0578 4.95273 14.464C4.33222 14.6972 2.52857 15.3935 2.52857 17.4568C2.52857 19.5193 4.47208 21 7.48929 21C10.1955 21 11.6314 19.6652 11.6314 17.8639C11.6315 16.3814 10.7023 15.5978 8.5598 14.0289ZM9.41775 8.71341C10.059 8.06782 10.1143 7.16906 10.1143 6.66433C10.1143 4.64376 8.91655 1.5 6.60714 1.5C5.88375 1.5 5.10365 1.86462 4.65765 2.42666C4.18465 3.01661 4.04571 3.77374 4.04571 4.50292C4.04571 6.3833 5.1306 9.5 7.52532 9.5C8.22088 9.49994 8.97089 9.16251 9.41775 8.71341Z" fill="white"/>
</svg>
