<svg width="21" height="17" viewBox="0 0 21 17" fill="none" xmlns="http://www.w3.org/2000/svg">
<path fill-rule="evenodd" clip-rule="evenodd" d="M20.2286 2.39583C19.4827 2.71667 18.6854 2.93333 17.8452 3.03333C18.7025 2.53333 19.3627 1.74167 19.6713 0.8C18.8697 1.2625 17.9824 1.6 17.035 1.77917C16.2763 0.991667 15.1961 0.5 14.0044 0.5C11.7111 0.5 9.85495 2.30833 9.85495 4.5375C9.85495 4.85417 9.88924 5.1625 9.96211 5.45833C6.51138 5.29167 3.45073 3.68333 1.40601 1.2375C1.05022 1.83333 0.844465 2.52917 0.844465 3.26667C0.844465 4.66667 1.58176 5.90417 2.69629 6.62917C2.01043 6.6125 1.36743 6.42917 0.810172 6.125C0.810172 6.14167 0.810172 6.15833 0.810172 6.175C0.810172 8.13333 2.2419 9.7625 4.14088 10.1333C3.79366 10.225 3.42501 10.275 3.04779 10.275C2.78202 10.275 2.52053 10.25 2.26762 10.2C2.79488 11.8042 4.32949 12.9708 6.14702 13.0042C4.72814 14.0875 2.93634 14.7333 0.99021 14.7333C0.655853 14.7333 0.325783 14.7125 0 14.675C1.83039 15.8333 4.01228 16.5 6.35277 16.5C13.9958 16.5 18.171 10.3458 18.171 5.00833C18.171 4.83333 18.1667 4.65833 18.1581 4.4875C18.9683 3.91667 19.6713 3.20833 20.2286 2.39583Z" fill="white"/>
</svg>
